<svg width="126" height="119" viewBox="0 0 126 119" fill="none" xmlns="http://www.w3.org/2000/svg">
<rect opacity="0.1" y="10" width="126" height="86" rx="12" fill="#F54748"/>
<g clip-path="url(#clip0_1_232)" filter="url(#filter0_d_1_232)">
<path d="M59.043 24C56.1835 24 53.8574 26.3261 53.8574 29.1855V31.0293L57.3145 32.7578H59.043H60.7715L64.2285 31.0293V29.1855C64.2285 26.3261 61.9024 24 59.043 24Z" fill="#E53536"/>
<path d="M64.2285 31.0293V29.1855C64.2285 26.3261 61.9024 24 59.043 24V32.7578H60.7715L64.2285 31.0293Z" fill="#F54748"/>
<path d="M33 76.0859C33.801 80.0306 37.4614 83 41.6426 83C45.8237 83 49.5994 80.0306 50.4004 76.0859L46.6451 74.3574H35.3996L33 76.0859Z" fill="#454545"/>
<path d="M41.6426 79.543C38.7832 79.543 36.457 77.2168 36.457 74.3574C36.457 71.498 38.7832 69.1719 41.6426 69.1719C44.502 69.1719 46.9434 71.498 46.9434 74.3574C46.9434 77.2168 44.502 79.543 41.6426 79.543Z" fill="white"/>
<path d="M50.4004 44.9727H39.9141L36.457 48.4297V58.8008L39.9141 60.5293H50.4004L55.5859 58.8008V49.4668L53.8574 48.4297L50.4004 44.9727Z" fill="#ED9F0F"/>
<path d="M36.457 41.5156V48.4297H53.8574L55.5859 47.5349L53.8574 46.7012V41.5156H36.457Z" fill="#FDC55E"/>
<path d="M60.7715 76.0859H33V74.3574C33 67.675 38.5324 62.2578 45.2148 62.2578L48.0957 60.5293H64.2285V73.2051L60.7715 76.0859Z" fill="#E53536"/>
<path d="M33 58.8008H57.3145V62.2578H33V58.8008Z" fill="#454545"/>
<path d="M69.4141 67.547V74.0462L67.6855 76.0859H60.7715V62.2578H57.3145C55.4131 62.2578 53.8574 60.7021 53.8574 58.8008V50.1582H64.2285V55.3438C66.1299 55.3438 67.6855 56.8994 67.6855 58.8008V65.7148L69.4141 67.547Z" fill="#5A5A5A"/>
<path d="M69.4141 67.547V74.0462L67.6855 76.0859H60.7715V62.2578H59.043V50.1582H64.2285V55.3438C66.1299 55.3438 67.6855 56.8994 67.6855 58.8008V65.7148L69.4141 67.547Z" fill="#3D3D3D"/>
<path d="M64.2285 48.4297V46.7012C64.2285 43.8417 61.9024 41.5156 59.043 41.5156C56.1835 41.5156 53.8574 43.8417 53.8574 46.7012V50.1582C53.8574 53.0221 56.179 55.3438 59.043 55.3438H72.9863C75.8502 55.3438 78.1719 53.0221 78.1719 50.1582V48.4297H64.2285Z" fill="#E53536"/>
<path d="M78.1719 50.1582V48.4297H64.2285V46.7012C64.2285 43.8417 61.9024 41.5156 59.043 41.5156V55.3438H72.9863C75.8502 55.3438 78.1719 53.0221 78.1719 50.1582Z" fill="#F54748"/>
<path d="M60.7715 32.7578H59.043H57.3145L53.8574 34.4863V36.2148C53.8574 39.0743 56.1835 41.5156 59.043 41.5156C61.9024 41.5156 64.2285 39.0743 64.2285 36.2148V34.4863L60.7715 32.7578Z" fill="#FFDFA5"/>
<path d="M64.2285 36.2148V34.4863L60.7715 32.7578H59.043V41.5156C61.9024 41.5156 64.2285 39.0743 64.2285 36.2148Z" fill="#FFA7A8"/>
<path d="M59.043 31.0293H53.8574V34.4863H59.043H67.6855V31.0293H59.043Z" fill="#5A5A5A"/>
<path d="M59.043 31.0293H67.6855V34.4863H59.043V31.0293Z" fill="#3D3D3D"/>
<path d="M82.9354 59.1873C82.7447 57.8419 82.3665 55.1918 81.6121 49.9133L74.7148 46.7012V60.5293C74.7148 63.2561 72.3658 65.7148 69.4141 65.7148H67.6855V76.0859H71.1426H88.543L92 74.3574V70.9004C92 65.3705 88.1852 60.5496 82.9354 59.1873Z" fill="#F54748"/>
<path d="M85.0859 51.8867H79.9004C77.041 51.8867 74.7148 49.5606 74.7148 46.7012C74.7148 43.8417 77.041 41.5156 79.9004 41.5156H85.0859V51.8867Z" fill="#E53536"/>
<path d="M83.8769 65.7673L83.3742 67.6881L80.4529 66.253C77.1192 67.4528 74.7148 70.6157 74.7148 74.3574C74.7148 79.1226 78.5921 82.9999 83.3574 82.9999C88.1227 82.9999 92 79.1226 92 74.3574C92 69.77 88.3963 66.0421 83.8769 65.7673Z" fill="#3D3D3D"/>
<path d="M83.3574 69.1719C80.498 69.1719 78.1719 71.498 78.1719 74.3574C78.1719 77.2168 80.498 79.543 83.3574 79.543C86.2168 79.543 88.543 77.2168 88.543 74.3574C88.543 71.498 86.2168 69.1719 83.3574 69.1719Z" fill="white"/>
<path d="M85.0692 74.1127L83.8771 65.7674C83.7016 65.7568 83.5354 65.7148 83.3575 65.7148C82.334 65.7148 81.365 65.925 80.4531 66.2531L81.6459 74.6022L85.0692 74.1127Z" fill="#A3A3A3"/>
</g>
<defs>
<filter id="filter0_d_1_232" x="3" y="0" width="119" height="119" filterUnits="userSpaceOnUse" color-interpolation-filters="sRGB">
<feFlood flood-opacity="0" result="BackgroundImageFix"/>
<feColorMatrix in="SourceAlpha" type="matrix" values="0 0 0 0 0 0 0 0 0 0 0 0 0 0 0 0 0 0 127 0" result="hardAlpha"/>
<feOffset dy="6"/>
<feGaussianBlur stdDeviation="15"/>
<feColorMatrix type="matrix" values="0 0 0 0 0.883615 0 0 0 0 0.178564 0 0 0 0 0.182616 0 0 0 0.34 0"/>
<feBlend mode="normal" in2="BackgroundImageFix" result="effect1_dropShadow_1_232"/>
<feBlend mode="normal" in="SourceGraphic" in2="effect1_dropShadow_1_232" result="shape"/>
</filter>
<clipPath id="clip0_1_232">
<rect width="59" height="59" fill="white" transform="translate(33 24)"/>
</clipPath>
</defs>
</svg>
